<?xml version="1.0" encoding="utf-8"?>
<!-- Generator: Adobe Illustrator 21.0.0, SVG Export Plug-In . SVG Version: 6.00 Build 0)  -->
<svg version="1.1" id="Layer_1" xmlns="http://www.w3.org/2000/svg" xmlns:xlink="http://www.w3.org/1999/xlink" x="0px" y="0px"
	 viewBox="0 0 4000 4000" style="enable-background:new 0 0 4000 4000;" xml:space="preserve">
<g>
	<path d="M1454.6,1361.8c0,33,0,62.7,0,95.1c-20.4,0-39.8,0.8-59.1-0.2c-16.8-0.9-26.2,7-31.5,21.7c-1.4,3.9-3.5,8-3.5,12
		c-0.2,54.9-0.2,109.9-0.2,167.4c425.6,0,849.9,0,1276.9,0c0,30.9,0.4,59.4-0.5,87.8c-0.1,3.4-6.5,8.5-10.7,9.4
		c-7.4,1.6-15.3,0.6-23,0.6c-403.8,0-807.5,0-1211.3,0c-10.3,0-20.6,0-32.7,0c0,10.6,0,18.1,0,25.7c0,266.1,0,532.3,0,798.4
		c0,44.5,19.2,63.8,63.5,63.8c384.9,0,769.8,0,1154.7,0c45.1,0,65.1-19.9,65.1-65.1c0-352.8,0-705.5-0.1-1058.3c0-8.3-0.4-16.8-2-25
		c-6.1-31.8-14.2-38.3-46.1-38.3c-15.2,0-30.5,0-49.1,0c0-29.6-0.5-57.2,0.6-84.8c0.1-3.6,7.7-9.7,12-9.8c23-0.7,46.3-1.9,69.1,0.7
		c57.9,6.7,105.1,59,111.6,121.7c1.4,13.9,1.7,27.9,1.7,41.8c0.1,347.9,0.1,695.7,0.1,1043.6c0,102.8-66,168.6-169,168.6
		c-383.5,0-767,0-1150.5,0c-99.2,0-160.6-61.5-160.6-160.7c0-353.5,0-706.9-0.1-1060.4c0-34.9,6.4-68,25.5-97.8
		c24-37.4,58-57.6,102.9-58C1409.7,1361.6,1431.3,1361.8,1454.6,1361.8z"/>
	<path d="M1755.1,1458.7c0-32.6,0-63.7,0-95.9c161.6,0,321.8,0,483.5,0c0,32,0,63,0,95.9C2078.2,1458.7,1917.5,1458.7,1755.1,1458.7
		z"/>
	<path d="M1555.6,1408.9c0-31.4-0.4-62.9,0.2-94.3c0.6-31.2,22.6-54.1,50-53.2c27,0.9,47.3,23.3,47.5,53.4
		c0.3,62.2,0.3,124.3,0,186.5c-0.2,33.3-20.8,56.2-49.2,56.1c-29.4-0.2-48-21.6-48.3-56.3
		C1555.3,1470.3,1555.6,1439.6,1555.6,1408.9z"/>
	<path d="M2438.2,1409.6c0,31.4,0.4,62.8-0.1,94.1c-0.6,32.8-19.9,53.5-48.8,53.5c-28.9,0-48.6-21-48.7-53.4
		c-0.3-62.8-0.3-125.5,0-188.3c0.1-31.3,21.1-54.3,48.5-54.3c27.4-0.1,48.4,22.6,48.9,54.2
		C2438.7,1346.9,2438.2,1378.3,2438.2,1409.6z"/>
	<path d="M1654,1949.2c0-31.4,0-61,0-92.2c31.7,0,62.5,0,95.1,0c0,30.5,0,60.6,0,92.2C1717.9,1949.2,1687,1949.2,1654,1949.2z"/>
	<path d="M1944.1,1949.6c-30.3,0-60,0-91.6,0c0-30,0-60.3,0-92.4c29.3,0,59.6,0,91.6,0C1944.1,1886.6,1944.1,1916.8,1944.1,1949.6z"
		/>
	<path d="M2142.1,1949.5c-31.4,0-61.7,0-93,0c0-30.8,0-60.6,0-92.2c30.4,0,61.2,0,93,0C2142.1,1888,2142.1,1918.3,2142.1,1949.5z"/>
	<path d="M2244.6,1949.3c0-30.9,0-61,0-92.5c31.8,0,62.6,0,94.8,0c0,30.9,0,61.1,0,92.5C2307.9,1949.3,2277,1949.3,2244.6,1949.3z"
		/>
	<path d="M2442.5,1949.2c0-30.9,0-61.2,0-92.6c31,0,60.8,0,92.2,0c0,30.5,0,60.8,0,92.6C2504.3,1949.2,2474,1949.2,2442.5,1949.2z"
		/>
	<path d="M1551.1,2146.7c-31.7,0-61.5,0-92.4,0c0-31,0-60.7,0-92.3c30.3,0,60.5,0,92.4,0C1551.1,2084.6,1551.1,2114.9,1551.1,2146.7
		z"/>
	<path d="M1654.2,2146.6c0-31.1,0-60.9,0-92.3c31.3,0,62.2,0,94.9,0c0,30.5,0,60.7,0,92.3
		C1717.8,2146.6,1687.3,2146.6,1654.2,2146.6z"/>
	<path d="M1851.5,2146.5c0-31.5,0-61.3,0-92.4c31.1,0,61.4,0,93,0c0,30.5,0,60.7,0,92.4C1914.1,2146.5,1883.8,2146.5,1851.5,2146.5z
		"/>
	<path d="M2142,2146.9c-32,0-61.8,0-92.7,0c0-31.3,0-61.5,0-93c30.9,0,61.2,0,92.7,0C2142,2084.9,2142,2115.2,2142,2146.9z"/>
	<path d="M2339.1,2147c-31.7,0-62,0-94.2,0c0-30.9,0-61,0-92.7c30.8,0,61.7,0,94.2,0C2339.1,2084.3,2339.1,2114.5,2339.1,2147z"/>
	<path d="M2442.4,2146.4c0-31.8,0-61.6,0-92.5c31,0,60.8,0,92.2,0c0,30.2,0,60.5,0,92.5C2504.4,2146.4,2474.2,2146.4,2442.4,2146.4z
		"/>
	<path d="M1552.6,2344.4c-33,0-62.6,0-94.8,0c0-29.4-0.4-57.8,0.5-86.1c0.1-3.5,6.3-9.7,9.9-9.8c24.3-0.9,48.7-1,73.1,0
		c3.9,0.2,10.8,6.9,10.9,10.8C1553,2286.9,1552.6,2314.7,1552.6,2344.4z"/>
	<path d="M1654.2,2344.2c0-31.9,0-62.2,0-95.9c29.6,0,58.5-0.3,87.4,0.4c3,0.1,8.3,5.9,8.4,9.2c0.7,28.3,0.4,56.7,0.4,86.3
		C1717.6,2344.2,1687.2,2344.2,1654.2,2344.2z"/>
	<path d="M1943.3,2344.6c-29.8,0-59.5,0-90.9,0c0-31.3,0-62.1,0-94.9c29.3,0,58.8,0,90.9,0C1943.3,2279.9,1943.3,2311,1943.3,2344.6
		z"/>
	<path d="M2049.1,2344.2c0-32.8,0-63.1,0-95c31.2,0,61.3,0,92.8,0c0,32,0,62.8,0,95C2110.8,2344.2,2080.7,2344.2,2049.1,2344.2z"/>
	<path d="M2339.5,2248c0,34.3,0,64.7,0,96.3c-31.6,0-62,0-96,0c0-29.1-0.4-58,0.5-86.8c0.1-3.2,7-8.9,10.9-9
		C2282.5,2247.6,2310.2,2248,2339.5,2248z"/>
	<path d="M2536.2,2344.3c-32.9,0-62.5,0-94.8,0c0-29.4-0.4-57.7,0.5-86c0.1-3.5,6.2-9.7,9.8-9.8c24.3-0.9,48.7-1,73-0.1
		c4,0.2,10.9,6.9,11.1,10.8C2536.6,2286.9,2536.2,2314.6,2536.2,2344.3z"/>
	<path d="M1654.2,2540.9c0-32.5,0-62.1,0-94.8c29.7,0,58.6-0.4,87.5,0.6c3.2,0.1,8.4,8.4,8.6,13c0.9,22.2,1.2,44.6-0.1,66.8
		c-0.3,5-7.7,13.5-12.2,13.8C1711,2541.6,1683.9,2540.9,1654.2,2540.9z"/>
	<path d="M1852.3,2447.1c31.9,0,61.7,0,92.5,0c0,31,0,60.8,0,92.2c-30.3,0-60.6,0-92.5,0C1852.3,2509,1852.3,2478.8,1852.3,2447.1z"
		/>
	<path d="M2049.5,2447.2c30.9,0,61.1,0,92.5,0c0,31,0,60.7,0,92.1c-30.4,0-60.7,0-92.5,0C2049.5,2509,2049.5,2478.8,2049.5,2447.2z"
		/>
	<path d="M2340.1,2447.4c0,31.6,0,60.7,0,93.4c-29.5,0-58.3,0.4-87.2-0.5c-3.3-0.1-9.1-6.8-9.2-10.6c-0.8-27-0.4-53.9-0.4-82.4
		C2276.4,2447.4,2307.3,2447.4,2340.1,2447.4z"/>
	<path d="M1551.3,2540.8c-28.6,0-56.3,0.4-83.8-0.5c-3.3-0.1-9.2-6.6-9.3-10.3c-0.8-27-0.4-53.9-0.4-82.5c31.9,0,62,0,93.5,0
		C1551.3,2478.2,1551.3,2508.3,1551.3,2540.8z"/>
</g>
</svg>
