<?xml version="1.0" encoding="utf-8"?>
<!-- Generator: Adobe Illustrator 21.0.0, SVG Export Plug-In . SVG Version: 6.00 Build 0)  -->
<svg version="1.1" id="Layer_1" xmlns="http://www.w3.org/2000/svg" xmlns:xlink="http://www.w3.org/1999/xlink" x="0px" y="0px"
	 viewBox="0 0 2000 2000" style="enable-background:new 0 0 2000 2000;" xml:space="preserve">
<g>
	<g>
		<path d="M1675,726H553c-11,0-20-9-20-20s9-20,20-20h1122c11,0,20,9,20,20S1686,726,1675,726z"/>
	</g>
	<g>
		<path d="M477,726H325c-11,0-20-9-20-20s9-20,20-20h152c11,0,20,9,20,20S488,726,477,726z"/>
	</g>
	<g>
		<path d="M1675,922H553c-11,0-20-9-20-20s9-20,20-20h1122c11,0,20,9,20,20S1686,922,1675,922z"/>
	</g>
	<g>
		<path d="M477,922H325c-11,0-20-9-20-20s9-20,20-20h152c11,0,20,9,20,20S488,922,477,922z"/>
	</g>
	<g>
		<path d="M1675,1118H553c-11,0-20-9-20-20s9-20,20-20h1122c11,0,20,9,20,20S1686,1118,1675,1118z"/>
	</g>
	<g>
		<path d="M477,1118H325c-11,0-20-9-20-20s9-20,20-20h152c11,0,20,9,20,20S488,1118,477,1118z"/>
	</g>
	<g>
		<path d="M1675,1314H553c-11,0-20-9-20-20s9-20,20-20h1122c11,0,20,9,20,20S1686,1314,1675,1314z"/>
	</g>
	<g>
		<path d="M477,1314H325c-11,0-20-9-20-20s9-20,20-20h152c11,0,20,9,20,20S488,1314,477,1314z"/>
	</g>
</g>
</svg>
