<?xml version="1.0" encoding="utf-8"?>
<!-- Generator: Adobe Illustrator 21.0.0, SVG Export Plug-In . SVG Version: 6.00 Build 0)  -->
<svg version="1.1" id="Layer_1" xmlns="http://www.w3.org/2000/svg" xmlns:xlink="http://www.w3.org/1999/xlink" x="0px" y="0px"
	 viewBox="0 0 2000 2000" style="enable-background:new 0 0 2000 2000;" xml:space="preserve">
<path d="M1116,1225.7c6.7,14,12.7,26.4,18.7,38.7c22.7,46.3,45.4,92.6,68.1,138.9c0.7,1.5,1.4,3,2.1,4.5c2.8,6.1,2.9,11.9-3.8,15.3
	c-6.9,3.4-11.3-0.4-14.3-6.4c-6.9-13.9-13.7-27.9-20.5-41.8c-23-46.9-46.1-93.7-68.8-140.7c-3-6.2-6.5-8.7-13.5-8.5
	c-21.5,0.5-43,0.1-64.5,0.2c-2.9,0-5.8,0.4-9.6,0.7c0,4.1,0,7.7,0,11.2c-0.2,45.6-0.4,91.3-0.4,136.9c0,7-1.2,13.2-9.6,13.1
	c-8.5,0-9.6-6.7-9.6-13.4c-0.2-44.6-0.3-89.3-0.5-133.9c0-4.3,0-8.5,0-14c-3.6-0.2-6.7-0.6-9.8-0.6c-21.2-0.1-42.3,0.4-63.5-0.2
	c-8-0.2-11.5,2.9-14.8,9.7c-28.8,59.5-58,118.7-87,178.1c-0.1,0.3-0.3,0.6-0.5,0.9c-3.1,6.8-7,13.2-15.6,8.8
	c-8.5-4.4-5.6-11.5-2.4-18c7.1-14.6,14.3-29.1,21.4-43.6c20.7-42.1,41.3-84.3,61.9-126.4c1.1-2.3,2.1-4.8,3.7-8.5
	c-4.3-0.2-7.7-0.6-11.1-0.6c-99.9,0-199.7,0-299.6,0c-19.2,0-20.4-1.2-20.4-19.9c0-57.2,0-114.4,0-171.6c0-118.9,0-237.8,0-356.7
	c0-3.9,0-7.7,0-12.7c-16.1,0-30.9-0.1-45.7,0c-7.1,0.1-14.1-0.8-14.3-9.7c-0.2-9.6,7.1-10.4,14.6-10.4c112.1,0,224.2,0,336.3,0
	c45.5,0,91,0.1,136.5,0.3c5.9,0,8.3-1.8,8.2-7.9c-0.2-15.9,0.1-31.7,0.4-47.6c0.1-8,4-13.8,12.4-13.8c8,0.1,11.3,5.8,11.4,13.4
	c0,5-0.2,9.9-0.3,14.9c0,13.1,0,26.3,0,41c17,0,33,0,49,0c137.8-0.1,275.6-0.3,413.4-0.4c6.6,0,13.2,0.1,19.8,0
	c7.3-0.1,13.8,1.6,13.7,10.4c-0.2,8.2-6.4,9.7-13.3,9.7c-15.1-0.1-30.2,0-46.7,0c0,5,0,8.9,0,12.7c0,62.8,0.1,125.7,0,188.5
	c-0.1,45-0.9,89.9-0.8,134.9c0.1,69.4,0.5,138.8,0.8,208.2c0.1,14.3-2.4,16.8-16.6,16.8c-100.5,0-201.1,0-301.6,0
	C1125.6,1225.7,1121.7,1225.7,1116,1225.7z M572.8,737.8c0,156.3,0,311.7,0,467.2c285.4,0,569.6,0,854.3,0c0-156,0-311.4,0-467.2
	C1142,737.8,858.1,737.8,572.8,737.8z M1426.8,665.1c-284.8,0-569,0-853.7,0c0,17.5,0,34.2,0,51.5c284.8,0,569,0,853.7,0
	C1426.8,699.2,1426.8,682.5,1426.8,665.1z"/>
</svg>
