<?xml version="1.0" encoding="utf-8"?>
<!-- Generator: Adobe Illustrator 21.0.0, SVG Export Plug-In . SVG Version: 6.00 Build 0)  -->
<svg version="1.1" id="Layer_1" xmlns="http://www.w3.org/2000/svg" xmlns:xlink="http://www.w3.org/1999/xlink" x="0px" y="0px"
	 viewBox="0 0 1000 1000" style="enable-background:new 0 0 1000 1000;" xml:space="preserve">
<style type="text/css">
	.st0{fill:#FFFFFF;}
</style>
<g>
	<circle class="st0" cx="500.1" cy="529.6" r="95.2"/>
	<path class="st0" d="M746.9,369.2h-21.4v-9.1h3v-7.4h-30.2v7.4h3.2v9.1h-47.6c-9.9,0-19.5-3.8-26.8-10.6l-40.7-38.2
		c-7.2-6.8-16.8-10.6-26.8-10.6H440.4c-9.9,0-19.5,3.8-26.8,10.6l-40.7,38.2c-7.2,6.8-16.8,10.6-26.8,10.6h-93
		c-21.6,0-39.1,17.5-39.1,39.1v242.9c0,21.6,17.5,39.1,39.1,39.1h493.7c21.6,0,39.1-17.5,39.1-39.1V408.3
		C785.9,386.7,768.5,369.2,746.9,369.2z M448.1,328.3h103.8c6.9,0,12.6,5.6,12.6,12.6s-5.6,12.6-12.6,12.6H448.1
		c-6.9,0-12.6-5.6-12.6-12.6S441.1,328.3,448.1,328.3z M500,656.8c-70.2,0-127-56.9-127-127s56.9-127,127-127s127,56.9,127,127
		S570.2,656.8,500,656.8z"/>
</g>
</svg>
