<?xml version="1.0" encoding="utf-8"?>
<!-- Generator: Adobe Illustrator 21.0.0, SVG Export Plug-In . SVG Version: 6.00 Build 0)  -->
<svg version="1.1" id="Layer_1" xmlns="http://www.w3.org/2000/svg" xmlns:xlink="http://www.w3.org/1999/xlink" x="0px" y="0px"
	 viewBox="0 0 2000 2000" style="enable-background:new 0 0 2000 2000;" xml:space="preserve">
<g>
	<path d="M713,557.3c6.1,2.9,12.3,4.9,17.3,8.4c24.8,17.5,49.3,35.3,73.8,53.2c3.9,2.8,6.8,2.9,11.2,1c15.2-6.8,30.6-13.1,46.2-19.1
		c4.8-1.9,6.8-4.3,7.5-9.4c4.5-29.4,9.5-58.7,14.2-88.1c2.7-16.6,9.1-23.3,25.4-26.2c37.3-6.7,75-9.6,112.8-7.5
		c23.8,1.3,47.4,4.7,71,7.8c14.8,2,21.8,9.6,24.2,24.5c4.6,28.8,9.4,57.6,13.7,86.5c1,6.9,3.3,10.9,10.7,13.4
		c14.5,4.8,28.5,11.1,42.3,17.5c5.6,2.6,9.1,2.1,14-1.5c23.7-17.5,47.7-34.7,71.6-51.8c13.5-9.7,23-9.7,36.6,0
		c49.8,35.1,92.3,77.5,127.6,127.2c10.9,15.4,10.8,24.3,0,39.3c-16.8,23.2-33.4,46.5-50.4,69.6c-4.1,5.5-4.7,9.6-1.3,16.3
		c7,13.8,12.3,28.5,17.7,43c1.8,4.7,4.1,7,9.2,7.8c29.1,4.5,58.2,9.4,87.3,14c17.8,2.8,24.2,8.7,27.3,26.2
		c10.8,61.7,10.6,123.3-0.6,184.9c-2.4,13.2-10.2,20.2-24.3,22.5c-29.9,4.8-59.8,9.8-89.8,14.4c-5.2,0.8-7.3,3.1-9.1,7.8
		c-6,15.5-12.3,31-19.1,46.2c-2.1,4.6-1.4,7.4,1.3,11.1c17.7,24.3,35.2,48.7,52.8,73c9.4,13,9.6,22.9,0.4,35.9
		c-25.5,36-54.3,69.1-88.6,97c-13.9,11.4-28,22.7-42.4,33.4c-11.1,8.2-21.9,7.8-33.1-0.2c-24.9-17.8-49.7-35.6-74.4-53.7
		c-4.2-3.1-7.3-3.2-11.9-1.1c-14.4,6.5-29,12.8-43.9,18.2c-6,2.2-8.8,4.9-9.8,11.4c-4.3,28.9-9.2,57.7-13.7,86.5
		c-2.7,16.9-8.9,23.6-26,26.6c-60.9,10.6-121.7,10.6-182.6-0.2c-16.1-2.9-22.5-9.7-25.1-25.6c-4.7-29.6-9.8-59.2-14.3-88.9
		c-0.8-5.2-3.1-7.3-7.8-9.1c-15.5-6-30.9-12.4-46.2-19.1c-4.1-1.8-6.8-1.9-10.5,0.8c-24.6,18-49.5,35.8-74.1,53.7
		c-11.7,8.5-22.6,9-34.6,0.6c-51.6-36.1-95.4-80-131.4-131.5c-7.9-11.3-7.7-21.9,0.3-33.2c17.7-24.6,35.4-49.2,53.3-73.7
		c3.1-4.3,3.8-7.5,1.5-12.7c-6.9-15.2-12.7-30.8-19.5-46c-1.3-2.8-4.8-6-7.8-6.5c-29.8-5.3-59.8-10-89.7-14.8
		c-15.4-2.5-22.6-9-25.4-24.3c-11-61.7-11-123.4,0-185.1c2.7-14.8,9.8-21.6,24.7-24c29.4-4.7,58.7-9.6,88.1-14c5.9-0.9,8.9-3.3,11-9
		c5.7-15.3,12.1-30.5,18.8-45.4c1.9-4.2,1.7-6.8-1-10.4c-17.6-24-34.8-48.2-52.3-72.3c-10.2-14-10.6-23.9-0.7-38
		c35.8-50.7,79.1-93.9,130.1-129.4C700.7,561.5,706.8,560,713,557.3z M1287.4,616c-26.1,18.8-51.8,37.2-77.4,55.9
		c-10.4,7.6-20.4,7.4-32,2.2c-24-10.8-48.4-20.9-73-30.2c-12.3-4.6-19.5-11.8-21.4-24.8c-4.2-29.2-8.7-58.3-13.6-87.3
		c-0.5-2.9-4-6.2-6.9-7.5c-3.6-1.6-8.1-1.5-12.2-1.8c-37-2.6-73.9-3.2-110.8,1.5c-6.3,0.8-9,2.9-10,9.3
		c-4.2,28.6-9.2,57.1-13.5,85.7c-2,13-9,20.3-21.3,24.9c-24.7,9.3-49,19.4-73.1,30.2c-11.6,5.2-21.7,5.5-32-2.1
		c-18.2-13.3-36.5-26.4-54.8-39.6c-7.6-5.5-15.2-10.9-22.8-16.3c-37.1,28.1-69.2,60-96.5,96.7c18.8,26.2,37.1,51.7,55.6,77.1
		c7.8,10.7,7.5,20.8,2.1,32.7c-10.8,23.7-20.8,47.8-29.9,72.3c-4.7,12.7-12.1,19.7-25.4,21.7c-28.3,4.2-56.5,9.2-84.9,13.4
		c-6.7,1-8.9,3.7-9.7,10.4c-4.6,39.4-4.6,78.8-0.2,118.2c0.9,8.2,4.2,10.5,11.5,11.6c27.5,4.1,54.9,9,82.4,13
		c14,2,21.9,9.1,26.6,22.6c8.1,22.7,16.7,45.4,27.5,66.9c7.9,15.8,7.6,28.1-3.1,42.1c-18.1,23.6-35,48.1-52.5,72.4
		c27.8,37,59.8,69.2,96.6,96.7c26.1-18.8,51.7-37.1,77.1-55.6c10.6-7.8,20.8-7.7,32.7-2.3c23.7,10.7,47.8,20.8,72.3,29.9
		c12.6,4.7,19.9,12,21.9,25.4c4.3,28.6,9.2,57.1,13.6,85.7c0.9,5.8,3.1,8.3,9.3,9c40.3,4.6,80.4,4.9,120.7,0
		c6.5-0.8,8.9-3.1,9.8-9.4c4.3-28.3,9.3-56.5,13.4-84.9c2-13.8,9.3-21.2,22.3-26c23.7-8.7,47.2-18.1,70-28.9
		c13.4-6.3,24.4-6.4,36.4,2.5c24.7,18.4,50,36.2,75.4,54.5c36.9-27.6,68.8-59.7,96.6-96.5c-2-2.8-3.8-5.6-5.8-8.3
		c-16.6-23-33.1-46.1-49.8-69c-7.8-10.6-7.5-20.9-2.2-32.8c10.8-24,20.9-48.4,30.2-73.1c4.5-12.1,11.8-18.9,24.3-20.8
		c28.9-4.5,57.6-9.3,86.5-13.7c6-0.9,8.1-3.5,8.8-9.5c4.9-40.3,4.7-80.4,0.1-120.7c-0.8-6.6-3.5-8.7-9.5-9.7
		c-28.3-4.3-56.5-9.3-84.9-13.4c-13.8-2-21.2-9.3-25.9-22.4c-8.1-22.7-16.6-45.5-27.5-67c-8.2-16.2-7.5-28.7,3.5-42.8
		c18-23.3,34.7-47.6,52.1-71.7C1356.3,675.8,1324.2,643.7,1287.4,616z"/>
	<path d="M758.6,999.9c0.6-133.4,108.3-241.2,241.1-241.2c133.7,0.1,242.1,108.5,241.4,241.4c-0.7,134.2-108.8,242-241.7,241.2
		C865.9,1240.6,758,1132.4,758.6,999.9z M1190.1,995.4c-2.6-104-89.8-187.7-193.2-185.5c-106.1,2.3-189.7,90-186.9,196
		c2.8,103.9,90.5,186.6,195.3,184.1C1109,1187.7,1192.7,1099.6,1190.1,995.4z"/>
</g>
</svg>
