<?xml version="1.0" encoding="utf-8"?>
<!-- Generator: Adobe Illustrator 21.0.0, SVG Export Plug-In . SVG Version: 6.00 Build 0)  -->
<svg version="1.1" id="Layer_1" xmlns="http://www.w3.org/2000/svg" xmlns:xlink="http://www.w3.org/1999/xlink" x="0px" y="0px"
	 viewBox="0 0 4000 4000" style="enable-background:new 0 0 4000 4000;" xml:space="preserve">
<style type="text/css">
	.st0{fill:none;stroke:#000000;stroke-width:40;stroke-miterlimit:10;}
	.st1{fill:none;}
	.st2{fill:none;stroke:#FF0000;stroke-width:40;stroke-miterlimit:10;}
	.st3{fill:none;stroke:#000000;stroke-width:40;stroke-linecap:round;stroke-miterlimit:10;}
</style>
<g>
	<path d="M2574.3,2279.7c18.1,15.9,47.3,15.9,65.4,0l251.8-222.1l32.7-28.8c18.1-15.9,18.1-41.7,0-57.7l-284.5-250.9
		c-18.1-15.9-47.3-15.9-65.4,0l0,0c-18.1,15.9-18.1,41.7,0,57.7l205.6,181.3h-613v81.6h613L2574.3,2222
		C2556.3,2238,2556.3,2263.8,2574.3,2279.7L2574.3,2279.7z"/>
	<path d="M2437.7,2769.1c0,143.7-116.9,260.6-260.6,260.6h-739.7c-143.7,0-260.6-116.9-260.6-260.6V1230.9
		c0-143.7,116.9-260.6,260.6-260.6h739.7c143.7,0,260.6,116.9,260.6,260.6v311.4h114.6v-311.4c0-206.9-168.3-375.2-375.2-375.2
		h-739.7c-206.9,0-375.2,168.3-375.2,375.2v1538.2c0,206.9,168.3,375.2,375.2,375.2h739.7c206.9,0,375.2-168.3,375.2-375.2v-311.4
		h-114.6V2769.1z"/>
</g>
</svg>
