<?xml version="1.0" encoding="utf-8"?>
<!-- Generator: Adobe Illustrator 21.0.0, SVG Export Plug-In . SVG Version: 6.00 Build 0)  -->
<svg version="1.1" id="Layer_1" xmlns="http://www.w3.org/2000/svg" xmlns:xlink="http://www.w3.org/1999/xlink" x="0px" y="0px"
	 viewBox="0 0 2000 2000" style="enable-background:new 0 0 2000 2000;" xml:space="preserve">
<g>
	<path d="M1521.9,989.3c-0.8,2.5-2.3,5.1-2.3,7.6c1.1,200,2,400,3.8,600c0.2,20.9-6.6,29.1-27.7,27.9c-23.6-1.3-47.4-1.7-71,0.1
		c-22.8,1.8-29.2-7.4-29.1-28.9c0.6-139.7,0.3-279.5,0.3-419.2c0-31.8,0-63.6,0-99.3c-17.6,12.3-32.8,21-45.2,32.6
		c-5.3,5-6.7,16.2-6.7,24.5c-0.4,151.9-0.3,303.9-0.3,455.8c0,34.2-0.1,34.2-34.6,34.2c-22.1,0-44.3-0.9-66.4,0.2
		c-20.1,1-26.6-7.2-26.5-26.9c0.6-126,0.4-252,0.4-378c0-3,0-6,0-9.1c-31.4,5.2-52.5,29-52.5,58.3c0,108.4,0,216.9-0.1,325.3
		c0,28.4-1.7,30.1-29.7,30.2c-22.9,0.1-45.9-1.2-68.7,0.3c-22.1,1.5-29.3-6.6-29.1-28.8c1-94.7,0.4-189.4,0.4-284
		c0-46.9-1.9-48.8-53.3-54.1c0,8.4,0,16.5,0,24.6c0,103.1,0,206.2,0,309.2c0,32.3-0.5,32.8-33.6,32.7c-21.4,0-42.8-1.1-64.1,0.4
		c-21.9,1.5-29.6-6.4-29.3-28.7c1-77.9,0.4-155.8,0.4-233.6c0-41.2-0.9-82.5,0.4-123.7c0.6-18.8-3.7-30.3-24.4-32.2
		c-8.8-0.8-17.3-4.8-29.2-8.3c0,12,0,21.5,0,31c0,122.2-0.4,244.3,0.5,366.5c0.2,22-6.8,30.4-28.9,29c-22.8-1.5-45.8-0.2-68.7-0.4
		c-28.2-0.2-29.9-2.1-29.9-29.7c0-94.7,0-189.4,0-284c0-11.4,0-22.8,0-34.6c-38.4,12-52.4,30.3-52.4,67.6c-0.1,84-0.7,168,0.4,252
		c0.3,22-6.6,30.5-28.8,29.2c-23.6-1.5-47.4-1.3-71,0c-20.8,1.1-28.5-6.4-28.1-27.6c1.1-58,0.4-116.1,0.3-174.1
		c0-5.1-0.6-10.2-1.2-19.4c-16.5,12-30.7,21.8-44.2,32.3c-12.7,9.9-24.7,11-32-4.5c-17.9-37.8-48.5-45.9-86.3-40.4
		c-8.2,1.2-16.8,0.4-25.2,0.1c-23.5-0.8-34.7-11.7-35.8-35.3c-0.4-7.6-0.1-15.3-0.1-22.9c0-303.9,0-607.8,0-911.7
		c0-39.6,8.5-48.1,48.3-48.1c200.8,0,401.6-0.1,602.4,0.1c48.4,0,54,5.9,54,53.9c0.1,69.4,0,138.8,0,212.2
		c58.1-37.1,117.6-48.1,180.9-26.5c40.4,13.7,72.3,38.9,96.1,74.2c47.7,71,43.1,165.9-11,230.4c-63.9,76.3-145.7,87.5-264.7,35.2
		c-0.5,7-1.2,13.4-1.3,19.9c-0.3,54.2-0.3,108.4-1,162.6c-0.2,12.2,2.2,19.5,15.5,23.1c25.7,7,50.6,16.6,76.3,23.5
		c6.9,1.9,17.1,0.1,22.9-4c123.9-87.6,247.4-175.7,371-263.7c2.5-1.7,5.2-3,11.2-6.5c-23.7-11.1-43.2-19.4-61.9-29.4
		c-5.8-3.1-13.1-11-12.6-16c0.5-5.1,9.1-12.1,15.2-13.6c97.9-23.4,196-46.3,294.2-68.6c5.4-1.2,14.8,1.3,17.5,5.4
		c2.8,4.1,1.6,13.6-1.4,18.5c-53.6,85.3-107.6,170.3-162.2,255c-3.3,5.1-13.4,10.5-17.9,8.9c-5.1-1.8-9.7-11-10.7-17.6
		c-3-20.1-4.2-40.6-6.2-60.9C1525.4,989.4,1523.6,989.4,1521.9,989.3z M949,402.8c-8.1-0.7-12.6-1.4-17.1-1.4
		c-203.8-0.1-407.5,0.1-611.3-0.5c-18.5-0.1-20.9,7.5-20.9,23.2c0.5,129.7,0.3,259.5,0.3,389.2c0,174,0.5,348-0.6,522
		c-0.2,24.2,7.3,31.6,29.8,28.4c7.5-1.1,15.3-1,22.9,0c26.6,3.4,47.7-6,69.1-22.1c97.5-73.3,197.7-143.1,293.8-218.2
		c36.6-28.6,68.3-37,111.4-18.2c37.9,16.5,79,25.8,121,39c1-10.3,2.3-17.6,2.3-25c0-58.7,0.3-117.5-1-176.2
		c-0.3-11.9-4.8-25.3-11.4-35.3c-43.2-65.7-51.6-135.4-12-203c19.6-33.4,25.6-64.9,24-101c-0.8-19-0.2-38.2-0.2-57.2
		C949,499.4,949,452.2,949,402.8z M1462.7,866c-0.1,1.7-0.2,3.5-0.3,5.2c9.6,4.4,19.6,8,28.6,13.3c8.1,4.8,21.4,11.9,21,17.1
		c-0.7,8.3-9.3,17.9-17.1,23.4c-123.9,88.6-249.1,175.5-371.8,265.7c-29.7,21.8-54.4,23.2-87.3,12c-82-27.9-165-53-247.9-78.2
		c-8.6-2.6-21.8-1.4-28.8,3.6c-105.5,76.6-210.4,154.1-315.3,231.4c-8.9,6.6-17.7,13.5-27.3,20.9c8.2,10.8,14.9,19.7,22.1,29.1
		c9.8-7,18-12.6,26-18.4c98.3-72.3,196.3-145,295.2-216.5c9.5-6.9,26.1-11.3,36.9-8.1c93.4,27.7,186.1,57.8,279.4,86
		c8.5,2.6,21.2,0.3,28.7-4.7c44.8-30.2,88.8-61.7,132.9-93c94.5-67.2,188.8-134.5,283.2-201.7c22-15.6,30.7-11.4,33.3,15.7
		c1.2,12.2,2.3,24.3,3.5,36.5c1.8,0.1,3.6,0.3,5.3,0.4c39.3-61.9,78.5-123.9,121.3-191.3C1605.8,832.6,1534.3,849.3,1462.7,866z
		 M1258.6,795.4c0-91.4-72.9-164.8-164-165.2c-90.9-0.4-164.7,73-165,164.1c-0.3,90.9,73.4,165.3,163.9,165.5
		C1184.1,960,1258.6,885.9,1258.6,795.4z M1493.1,1595.2c0-195.1,0-387.5,0-585c-20.2,14.2-35.7,26.2-52.3,36.3
		c-12.7,7.7-16.4,17.1-16.3,31.8c0.5,165.5,0.2,331,0.3,496.5c0,6.5,1.1,13,1.8,20.4C1449.7,1595.2,1470.8,1595.2,1493.1,1595.2z
		 M1316.3,1135.8c-25.6,17.9-46.5,31.3-65.9,46.7c-4.7,3.7-6.5,13.5-6.5,20.6c-0.2,116.6,0.2,233.2,0.4,349.8
		c0.1,44.2,0,43.1,45,44.5c21.4,0.7,26.7-6.2,26.6-27c-0.7-121.2,0.1-242.3,0.3-363.5C1316.3,1185.1,1316.3,1163.3,1316.3,1135.8z
		 M774.5,1593c0-129.1,0-258.3,0-392.2c-19.5,14.2-35.4,26.9-52.4,37.9c-13,8.4-17.3,18.6-17.2,34c0.7,88.5,0.3,177.1,0.3,265.6
		c0,64.5,0,64.5,65,57.3C771,1595.6,771.6,1594.9,774.5,1593z M886.4,1595.1c23.5,0,45.2,0,66.1,0c1.1-2.3,1.7-3,1.7-3.7
		c0.4-111.4,0.9-222.9,0.8-334.3c0-4.7-4.3-12-8.3-13.5c-19.1-7.2-38.7-12.8-60.3-19.6C886.4,1349,886.4,1470.9,886.4,1595.1z
		 M1065.8,1596.8c14.6,0,28.2-1.2,41.5,0.3c21.2,2.3,28.8-4.5,28.4-27.2c-1.3-94.4-0.5-188.9-0.7-283.3c0-6.2-1-12.5-1.9-22
		c-21.3,18.8-41,31.1-67.4,14.7C1065.8,1387,1065.8,1490.2,1065.8,1596.8z M596.2,1332.7c-21.8,15.7-40.4,27.3-56.6,41.6
		c-7.3,6.4-13.6,18.2-13.9,27.7c-1.4,48-0.7,96-0.7,144c0,52.6,0,52,52,51.1c15.2-0.3,19.5-5.3,19.4-20
		c-0.6-67.8-0.3-135.6-0.3-203.5C596.2,1361.7,596.2,1349.9,596.2,1332.7z"/>
	<path d="M631.6,499.7c68,0,135.9,0,203.9,0.1c6.8,0,14.1-0.5,20.3,1.8c4.1,1.5,9.6,7.6,9.3,11.3c-0.4,4.9-4.8,11.2-9.2,13.6
		c-4.9,2.7-11.8,2.1-17.8,2.1c-138.2,0.1-276.4,0.1-414.6,0.1c-3.1,0-6.7,1-9-0.3c-1.5-0.9-2.9-1.8-4.4-2.7c-9-6-8.2-19.9,1.7-24.2
		c0.8-0.4,1.6-0.6,2.5-0.8c13.3-2.4,27.4-0.7,41.1-0.7C514,499.7,572.8,499.7,631.6,499.7z"/>
	<path d="M629.3,936.1c-67.2,0-134.4,0-201.6,0c-6.1,0-12.9,1.2-18.1-1.1c-5.4-2.3-9.4-8.1-14-12.4c4.8-5,8.9-10.9,14.6-14.6
		c3.3-2.1,8.9-0.7,13.5-0.7c138.2,0,276.4,0,414.6,0c4.6,0,10.3-1.5,13.5,0.7c5.5,3.8,9.4,10,14,15.2c-4.8,4.2-8.9,9.9-14.5,12.1
		c-5.3,2.1-12,0.8-18.1,0.8C765.2,936.1,697.3,936.1,629.3,936.1z"/>
	<path d="M631.6,602.1c69.4,0,138.9-0.1,208.3,0.1c11,0,26.3-2.2,24.4,14.7c-0.6,5.3-15.6,12.7-24.1,12.7
		c-139.7,0.8-279.3,0.6-419,0.6c-1.5,0-3.5,0.6-4.5-0.1c-2.2-1.5-4.4-3-6.6-4.6c-8.7-6.2-6.4-20,4-22.5c0.7-0.2,1.5-0.3,2.3-0.3
		c53.4-1,106.8-0.6,160.3-0.6C595,602.1,613.3,602.1,631.6,602.1z"/>
	<path d="M633.6,704c67.1,0,134.3,0,201.4,0c6.1,0,13-1.5,18.1,0.9c5.2,2.5,10.9,8.4,11.8,13.6c0.6,3.5-5.9,10.1-10.7,12.2
		c-5.2,2.3-12,1.1-18.1,1.1c-136.6,0-273.1,0-409.7,0c-6.1,0-13,1.5-18.1-0.9c-5.1-2.4-10.7-8.4-11.6-13.6c-0.6-3.4,5.8-10,10.5-12
		c5.2-2.3,12-1.2,18.1-1.2C494.7,704,564.1,704,633.6,704z"/>
	<path d="M629.3,833.5c-69.5,0-138.9,0.4-208.3-0.6c-8.4-0.1-23.3-7.2-23.9-12.4c-1.9-16.8,13-14.8,24.2-14.8
		c139.7-0.1,279.3,0,419-0.1c11.8,0,25.9-0.5,24.3,15.4c-0.5,4.9-16,11.8-24.7,12C769.8,834,699.5,833.5,629.3,833.5z"/>
	<path d="M1050.8,885.7c-8.1-4.2-14-7.2-22.2-11.4c34.7-55.6,68.7-110.2,103.8-166.5c7.2,3.3,13.6,6.2,22.7,10.4
		C1120.1,774.4,1086.2,828.9,1050.8,885.7z"/>
	<path d="M1042.5,685c-31.4,0.1-46.8,16-47,48.2c-0.2,33.7,15.5,50.2,47.5,50c31.2-0.2,47.2-16.5,47.3-48.2
		C1090.4,701.5,1074.4,684.8,1042.5,685z"/>
	<path d="M1144.6,805.9c-30.2,0.5-47.2,18.3-47.1,49.3c0.1,32.4,17.4,50.2,48.6,50.1c30.3-0.1,46.4-17.3,46.5-49.2
		C1192.7,823,1175.8,805.4,1144.6,805.9z"/>
</g>
</svg>
